<svg width="54" height="34" viewBox="0 0 54 34" fill="none" xmlns="http://www.w3.org/2000/svg">
<path d="M1.17731 31.0446C1.0796 31.3274 1.00633 31.6249 0.981904 31.7712L1.52903 31.8541V32.0541H0V31.8541L0.488509 31.7712L2.06639 27.4846L2.55002 27.4456L4.16698 31.7712L4.57733 31.8541V32.0541H2.98968V31.8541L3.49773 31.7712L3.12646 30.7325H1.28478L1.17731 31.0446ZM2.1641 27.9918C2.1641 27.9918 2.09082 28.3429 1.98823 28.6501L1.39225 30.4057H2.99945L2.36438 28.6696C2.25203 28.3429 2.18852 27.9918 2.18852 27.9918H2.1641Z" fill="#56453B"/>
<path d="M5.38861 33.4928L5.91132 33.4197V29.1038L5.38373 29.0501V28.8502L6.39006 28.7575L6.52196 28.7917L6.50241 29.1769C6.74667 28.9624 7.08863 28.7283 7.53317 28.7283C8.36363 28.7283 8.77398 29.4451 8.77398 30.2498C8.77398 31.4251 8.15846 32.1225 7.17656 32.1225C6.75155 32.1225 6.51707 31.9469 6.51707 31.9469V33.4197L7.03977 33.4928V33.6976H5.38373V33.4928H5.38861ZM8.13892 30.4888C8.13892 29.6597 7.88978 29.2111 7.26937 29.2111C6.98115 29.2111 6.7027 29.3037 6.49264 29.4403C6.49753 29.4988 6.51707 29.7719 6.51707 30.0937V31.6055C6.51707 31.6055 6.75155 31.7616 7.10328 31.7616C7.77254 31.7616 8.13892 31.2642 8.13892 30.4888Z" fill="#56453B"/>
<path d="M11.455 30.6606L10.6587 31.7774L11.1961 31.8554V32.0554H9.7403V31.8554L10.1653 31.7774L11.2693 30.4802L10.1653 29.0855L9.77938 29.0026V28.8026H11.3377V29.0026L10.8688 29.0855L11.6797 30.1486L12.4564 29.0855L11.9093 29.0026V28.8026H13.3601V29.0026L12.9351 29.0855L11.8555 30.3388L13.0377 31.7725L13.4237 31.8554V32.0554H11.8653V31.8554L12.3489 31.7774L11.455 30.6606Z" fill="#56453B"/>
<path d="M18.3969 28.7932V28.9931L17.8742 29.076V31.7241L18.3969 31.846V32.046H16.8093V31.846L17.2685 31.7241V29.7832C17.2685 29.5735 17.3026 29.3248 17.3026 29.3248H17.2782C17.2782 29.3248 17.161 29.5783 16.9753 29.8661L15.588 32.046H14.4839V31.846L15.0018 31.7241V29.0809L14.4839 28.9883V28.7883H16.0716V28.9883L15.6075 29.0712V30.8999C15.6075 31.1633 15.5733 31.5242 15.5733 31.5242H15.5977C15.5977 31.5242 15.715 31.2218 15.925 30.8999L17.2831 28.7834H18.3969V28.7932Z" fill="#56453B"/>
<path d="M21.4061 31.7726L21.9337 31.8555V32.0555H20.2776V31.8555L20.7954 31.7726V29.11L19.921 29.1441L19.7647 29.8561H19.5693L19.5937 28.7979H22.6225L22.6176 29.8561H22.4222L22.2903 29.1441L21.4061 29.11V31.7726Z" fill="#56453B"/>
<path d="M24.4551 30.3766C24.4747 31.152 24.9143 31.7128 25.6275 31.7128C26.0721 31.7128 26.4629 31.5568 26.4629 31.5568V31.7811C26.4629 31.7811 26.0428 32.1225 25.3637 32.1225C24.4209 32.1225 23.8347 31.4348 23.8347 30.4839C23.8347 29.4013 24.5235 28.7283 25.3442 28.7283C26.2528 28.7283 26.6827 29.3232 26.5948 30.3815H24.4551V30.3766ZM24.4649 30.0742L25.9939 30.0352C25.989 29.5183 25.8767 29.0648 25.3149 29.0648C24.841 29.0599 24.5284 29.45 24.4649 30.0742Z" fill="#56453B"/>
<path d="M28.3771 29.0807L27.8593 28.9978V28.7979H29.4177V28.9978L28.9878 29.0807V30.2023H29.4714L30.297 29.0612L29.9501 28.9978V28.7979H31.2593V28.9978L30.7953 29.0612L29.828 30.178L31.0591 31.6458C31.2007 31.8165 31.2349 31.8214 31.4596 31.8555V32.0555H31.0542C30.634 32.0555 30.5754 32.0018 30.3409 31.7092L29.359 30.4998H28.9927V31.7726L29.4519 31.8507V32.0506H27.8642V31.8507L28.3869 31.7726V29.0807H28.3771Z" fill="#56453B"/>
<path d="M34.2301 31.7726L34.7577 31.8555V32.0555H33.1016V31.8555L33.6195 31.7726V29.11L32.745 29.1441L32.5887 29.8561H32.3933L32.4177 28.7979H35.4465L35.4416 29.8561H35.2462L35.1143 29.1441L34.2301 29.11V31.7726Z" fill="#56453B"/>
<path d="M36.6528 30.4985C36.6528 29.4939 37.1999 28.7283 38.2893 28.7283C39.2028 28.7283 39.7548 29.3866 39.7548 30.3522C39.7548 31.3568 39.2077 32.1225 38.1183 32.1225C37.2048 32.1225 36.6528 31.4641 36.6528 30.4985ZM39.1295 30.4302C39.1295 29.5866 38.7827 29.0453 38.2062 29.0453C37.5272 29.0453 37.2732 29.611 37.2732 30.4156C37.2732 31.2593 37.62 31.8006 38.1965 31.8006C38.8755 31.8006 39.1295 31.2349 39.1295 30.4302Z" fill="#56453B"/>
<path d="M40.9076 33.4928L41.4303 33.4197V29.1038L40.9027 29.0501V28.8502L41.909 28.7575L42.0409 28.7917L42.0214 29.1769C42.2608 28.9624 42.6076 28.7283 43.0521 28.7283C43.8826 28.7283 44.293 29.4451 44.293 30.2498C44.293 31.4251 43.6774 32.1225 42.6955 32.1225C42.2705 32.1225 42.036 31.9469 42.036 31.9469V33.4197L42.5588 33.4928V33.6976H40.9027V33.4928H40.9076ZM43.6628 30.4888C43.6628 29.6597 43.4136 29.2111 42.7932 29.2111C42.505 29.2111 42.2266 29.3037 42.0165 29.4403C42.0214 29.4988 42.0409 29.7719 42.0409 30.0937V31.6055C42.0409 31.6055 42.2754 31.7616 42.6271 31.7616C43.2964 31.7616 43.6628 31.2642 43.6628 30.4888Z" fill="#56453B"/>
<path d="M49.4371 28.7932V28.9931L48.9144 29.076V31.7241L49.4371 31.846V32.046H47.8495V31.846L48.3087 31.7241V29.7832C48.3087 29.5735 48.3429 29.3248 48.3429 29.3248H48.3184C48.3184 29.3248 48.2012 29.5783 48.0156 29.8661L46.6282 32.046H45.5242V31.846L46.042 31.7241V29.0809L45.5242 28.9883V28.7883H47.1118V28.9883L46.6477 29.0712V30.8999C46.6477 31.1633 46.6136 31.5242 46.6136 31.5242H46.638C46.638 31.5242 46.7552 31.2218 46.9653 30.8999L48.3233 28.7834H49.4371V28.7932Z" fill="#56453B"/>
<path d="M52.8765 30.7973H52.178L51.582 31.6995C51.3866 32.0067 51.2302 32.1238 50.8687 32.1238C50.6587 32.1238 50.5219 32.0604 50.5219 32.0604V31.8897C50.7808 31.836 50.815 31.8117 50.9909 31.5776L51.6308 30.7241C51.2009 30.5925 50.9029 30.2804 50.9029 29.8025C50.9029 29.1782 51.4208 28.7979 52.2366 28.7979H54.0001V28.9978L53.4774 29.0807V31.7775L54.0001 31.8555V32.0555H52.4124V31.8555L52.8716 31.7775V30.7973H52.8765ZM52.261 30.4706H52.8765V29.1197H52.2805C51.8213 29.1197 51.5527 29.4465 51.5527 29.7927C51.5527 30.1536 51.8165 30.4706 52.261 30.4706Z" fill="#56453B"/>
<path d="M35.2324 20.6529L27.5237 0H26.6932L19.1018 20.6529L16.5322 21.0577V21.9013H23.5863V21.0577C23.5863 21.0577 20.8067 20.6578 20.7774 20.6529C20.9239 19.9458 26.107 4.35491 26.107 4.35491L31.9447 20.648L29.336 21.0577V21.9013H37.4648V21.0577L35.2324 20.6529Z" fill="#56453B"/>
<path d="M20.2782 18.6681C23.219 18.6681 26.8095 16.537 29.3498 11.6359C31.1573 8.14901 32.6814 7.29559 34.8748 7.29559C36.1498 7.29559 36.2231 7.66134 36.7116 7.66134C36.8191 7.66134 36.8582 7.61745 36.8582 7.57356C36.8582 7.36386 35.5783 6.36414 33.932 6.36414C26.3699 6.36414 25.4173 15.9127 20.0779 15.9127C16.844 15.9127 16.7853 13.5768 16.0086 13.5768C15.7057 13.5768 15.4859 13.6743 15.4859 14.1132C15.4908 15.9859 17.225 18.6681 20.2782 18.6681Z" fill="url(#paint0_linear_128_4535)"/>
<path d="M16.0239 12.9583C15.467 12.9583 15.3253 13.2216 15.3253 13.7141C15.3253 14.9626 16.4929 18.6933 20.3228 18.6933C22.4966 18.6933 24.2162 17.5619 25.5303 16.5231C24.817 17.0059 23.6446 17.8886 22.1254 17.8886C17.548 17.8886 17.3184 12.9583 16.0239 12.9583Z" fill="url(#paint1_linear_128_4535)"/>
<path d="M27.3811 7.89868L29.6087 14.1067L32.1978 12.5169L29.6722 5.74805L27.3811 7.89868Z" fill="#56453B"/>
<path d="M30.9612 0.209699H30.4972V1.4874H30.2578V0.209699H29.7937V0H30.9612V0.209699Z" fill="#56453B"/>
<path d="M32.4986 0.604469L32.5182 0.321619H32.5035L32.396 0.550825L32.0345 1.13115H31.9515L31.5753 0.550825L31.4776 0.321619H31.4679L31.4923 0.599594V1.48716H31.2725V-0.000244141H31.5069L31.9222 0.667867L32.0101 0.838552H32.015L32.1029 0.658114L32.4937 -0.000244141H32.7331V1.48716H32.4986V0.604469Z" fill="#56453B"/>
<defs>
<linearGradient id="paint0_linear_128_4535" x1="19.6982" y1="17.1812" x2="33.3865" y2="3.46929" gradientUnits="userSpaceOnUse">
<stop stop-color="#144069"/>
<stop offset="0.0227" stop-color="#10507F"/>
<stop offset="0.0612" stop-color="#0A669D"/>
<stop offset="0.1017" stop-color="#0678B5"/>
<stop offset="0.1447" stop-color="#0284C6"/>
<stop offset="0.1916" stop-color="#018CD0"/>
<stop offset="0.25" stop-color="#008ED3"/>
<stop offset="0.8" stop-color="#65BAE8"/>
<stop offset="1" stop-color="#008ED3"/>
</linearGradient>
<linearGradient id="paint1_linear_128_4535" x1="15.3289" y1="15.8239" x2="25.5365" y2="15.8239" gradientUnits="userSpaceOnUse">
<stop stop-color="#8FCDF0"/>
<stop offset="0.6" stop-color="#008ED3"/>
</linearGradient>
</defs>
</svg>
