<svg width="43" height="38" viewBox="0 0 43 38" fill="none" xmlns="http://www.w3.org/2000/svg">
<g clip-path="url(#clip0_174_273)">
<path d="M29.875 3.39844H14.125C13.8203 3.39844 13.5566 3.50977 13.334 3.73242C13.1113 3.95508 13 4.21875 13 4.52344V20.2734C13 20.5781 13.1113 20.8418 13.334 21.0645C13.5566 21.2871 13.8203 21.3984 14.125 21.3984H29.875C30.1797 21.3984 30.4434 21.2871 30.666 21.0645C30.8887 20.8418 31 20.5781 31 20.2734V4.52344C31 4.32422 30.9502 4.13672 30.8506 3.96094C30.751 3.78516 30.6133 3.64746 30.4375 3.54785C30.2617 3.44824 30.0742 3.39844 29.875 3.39844ZM29.875 20.2734H14.125V4.52344H29.875V20.2734ZM16.9375 9.58594H18.0625V10.7109C18.0625 10.875 18.1182 11.0098 18.2295 11.1152C18.3408 11.2207 18.4727 11.2734 18.625 11.2734C18.7773 11.2734 18.9092 11.2207 19.0205 11.1152C19.1318 11.0098 19.1875 10.875 19.1875 10.7109V9.58594H20.3125C20.4648 9.58594 20.5967 9.5332 20.708 9.42773C20.8193 9.32227 20.875 9.19043 20.875 9.03223C20.875 8.87402 20.8193 8.73926 20.708 8.62793C20.5967 8.5166 20.4648 8.46094 20.3125 8.46094H19.1875V7.33594C19.1875 7.18359 19.1318 7.05176 19.0205 6.94043C18.9092 6.8291 18.7773 6.77344 18.625 6.77344C18.4727 6.77344 18.3408 6.8291 18.2295 6.94043C18.1182 7.05176 18.0625 7.18359 18.0625 7.33594V8.46094H16.9375C16.7852 8.46094 16.6533 8.5166 16.542 8.62793C16.4307 8.73926 16.375 8.87402 16.375 9.03223C16.375 9.19043 16.4307 9.32227 16.542 9.42773C16.6533 9.5332 16.7852 9.58594 16.9375 9.58594ZM20.6201 13.7959C20.5088 13.6846 20.374 13.6289 20.2158 13.6289C20.0576 13.6289 19.9258 13.6816 19.8203 13.7871L18.625 14.9824L17.4297 13.7871C17.3242 13.6816 17.1924 13.6289 17.0342 13.6289C16.876 13.6289 16.7412 13.6846 16.6299 13.7959C16.5186 13.9072 16.4629 14.0391 16.4629 14.1914C16.4629 14.3438 16.5215 14.4727 16.6387 14.5781L17.834 15.7734L16.6387 16.9688C16.5684 17.0391 16.5186 17.124 16.4893 17.2236C16.46 17.3232 16.46 17.4199 16.4893 17.5137C16.5186 17.6074 16.5684 17.6895 16.6387 17.7598C16.6855 17.8184 16.7441 17.8623 16.8145 17.8916C16.8848 17.9209 16.958 17.9355 17.0342 17.9355C17.1104 17.9355 17.1836 17.9209 17.2539 17.8916C17.3242 17.8623 17.3828 17.8184 17.4297 17.7598L18.625 16.582L19.8203 17.7598C19.8672 17.8184 19.9258 17.8623 19.9961 17.8916C20.0664 17.9209 20.1396 17.9355 20.2158 17.9355C20.292 17.9355 20.3652 17.9209 20.4355 17.8916C20.5059 17.8623 20.5645 17.8184 20.6113 17.7598C20.8809 17.502 20.8809 17.2383 20.6113 16.9688L19.416 15.7734L20.6113 14.5781C20.7285 14.4727 20.7871 14.3438 20.7871 14.1914C20.7871 14.0391 20.7314 13.9072 20.6201 13.7959ZM23.6875 9.58594H27.0625C27.2148 9.58594 27.3467 9.5332 27.458 9.42773C27.5693 9.32227 27.625 9.19043 27.625 9.03223C27.625 8.87402 27.5693 8.73926 27.458 8.62793C27.3467 8.5166 27.2148 8.46094 27.0625 8.46094H23.6875C23.5352 8.46094 23.4033 8.5166 23.292 8.62793C23.1807 8.73926 23.125 8.87402 23.125 9.03223C23.125 9.19043 23.1807 9.32227 23.292 9.42773C23.4033 9.5332 23.5352 9.58594 23.6875 9.58594ZM23.6875 15.2109H27.0625C27.2148 15.2109 27.3467 15.1582 27.458 15.0527C27.5693 14.9473 27.625 14.8154 27.625 14.6572C27.625 14.499 27.5693 14.3643 27.458 14.2529C27.3467 14.1416 27.2148 14.0859 27.0625 14.0859H23.6875C23.5352 14.0859 23.4033 14.1416 23.292 14.2529C23.1807 14.3643 23.125 14.499 23.125 14.6572C23.125 14.8154 23.1807 14.9473 23.292 15.0527C23.4033 15.1582 23.5352 15.2109 23.6875 15.2109ZM23.6875 17.4609H27.0625C27.2148 17.4609 27.3467 17.4082 27.458 17.3027C27.5693 17.1973 27.625 17.0654 27.625 16.9072C27.625 16.749 27.5693 16.6143 27.458 16.5029C27.3467 16.3916 27.2148 16.3359 27.0625 16.3359H23.6875C23.5352 16.3359 23.4033 16.3916 23.292 16.5029C23.1807 16.6143 23.125 16.749 23.125 16.9072C23.125 17.0654 23.1807 17.1973 23.292 17.3027C23.4033 17.4082 23.5352 17.4609 23.6875 17.4609Z" fill="#001AFF"/>
</g>
<path d="M1.18 35.3984V28.3984H3.8C4.39333 28.3984 4.90333 28.4951 5.33 28.6884C5.75667 28.8751 6.08333 29.1484 6.31 29.5084C6.54333 29.8618 6.66 30.2918 6.66 30.7984C6.66 31.2918 6.54333 31.7184 6.31 32.0784C6.08333 32.4318 5.75667 32.7051 5.33 32.8984C4.90333 33.0918 4.39333 33.1884 3.8 33.1884H1.59L1.92 32.8384V35.3984H1.18ZM1.92 32.8984L1.59 32.5384H3.78C4.48 32.5384 5.01 32.3884 5.37 32.0884C5.73667 31.7818 5.92 31.3518 5.92 30.7984C5.92 30.2384 5.73667 29.8051 5.37 29.4984C5.01 29.1918 4.48 29.0384 3.78 29.0384H1.59L1.92 28.6884V32.8984ZM11.2134 35.3984V34.2384L11.1834 34.0484V32.1084C11.1834 31.6618 11.0567 31.3184 10.8034 31.0784C10.5567 30.8384 10.1867 30.7184 9.69336 30.7184C9.35336 30.7184 9.03003 30.7751 8.72336 30.8884C8.41669 31.0018 8.15669 31.1518 7.94336 31.3384L7.62336 30.8084C7.89003 30.5818 8.21003 30.4084 8.58336 30.2884C8.95669 30.1618 9.35003 30.0984 9.76336 30.0984C10.4434 30.0984 10.9667 30.2684 11.3334 30.6084C11.7067 30.9418 11.8934 31.4518 11.8934 32.1384V35.3984H11.2134ZM9.40336 35.4484C9.01003 35.4484 8.66669 35.3851 8.37336 35.2584C8.08669 35.1251 7.86669 34.9451 7.71336 34.7184C7.56003 34.4851 7.48336 34.2184 7.48336 33.9184C7.48336 33.6451 7.54669 33.3984 7.67336 33.1784C7.80669 32.9518 8.02003 32.7718 8.31336 32.6384C8.61336 32.4984 9.01336 32.4284 9.51336 32.4284H11.3234V32.9584H9.53336C9.02669 32.9584 8.67336 33.0484 8.47336 33.2284C8.28003 33.4084 8.18336 33.6318 8.18336 33.8984C8.18336 34.1984 8.30003 34.4384 8.53336 34.6184C8.76669 34.7984 9.09336 34.8884 9.51336 34.8884C9.91336 34.8884 10.2567 34.7984 10.5434 34.6184C10.8367 34.4318 11.05 34.1651 11.1834 33.8184L11.3434 34.3084C11.21 34.6551 10.9767 34.9318 10.6434 35.1384C10.3167 35.3451 9.90336 35.4484 9.40336 35.4484ZM15.9834 35.4484C15.4634 35.4484 14.9968 35.3351 14.5834 35.1084C14.1768 34.8751 13.8568 34.5584 13.6234 34.1584C13.3901 33.7518 13.2734 33.2884 13.2734 32.7684C13.2734 32.2418 13.3901 31.7784 13.6234 31.3784C13.8568 30.9784 14.1768 30.6651 14.5834 30.4384C14.9968 30.2118 15.4634 30.0984 15.9834 30.0984C16.4301 30.0984 16.8334 30.1851 17.1934 30.3584C17.5534 30.5318 17.8368 30.7918 18.0434 31.1384L17.5134 31.4984C17.3334 31.2318 17.1101 31.0351 16.8434 30.9084C16.5768 30.7818 16.2868 30.7184 15.9734 30.7184C15.6001 30.7184 15.2634 30.8051 14.9634 30.9784C14.6634 31.1451 14.4268 31.3818 14.2534 31.6884C14.0801 31.9951 13.9934 32.3551 13.9934 32.7684C13.9934 33.1818 14.0801 33.5418 14.2534 33.8484C14.4268 34.1551 14.6634 34.3951 14.9634 34.5684C15.2634 34.7351 15.6001 34.8184 15.9734 34.8184C16.2868 34.8184 16.5768 34.7551 16.8434 34.6284C17.1101 34.5018 17.3334 34.3084 17.5134 34.0484L18.0434 34.4084C17.8368 34.7484 17.5534 35.0084 17.1934 35.1884C16.8334 35.3618 16.4301 35.4484 15.9834 35.4484ZM22.7382 33.1784C22.4315 33.3118 22.1215 33.4184 21.8082 33.4984C21.5015 33.5718 21.1949 33.6084 20.8882 33.6084C20.2682 33.6084 19.7782 33.4684 19.4182 33.1884C19.0582 32.9018 18.8782 32.4618 18.8782 31.8684V30.1484H19.5782V31.8284C19.5782 32.2284 19.7082 32.5284 19.9682 32.7284C20.2282 32.9284 20.5782 33.0284 21.0182 33.0284C21.2849 33.0284 21.5649 32.9951 21.8582 32.9284C22.1515 32.8551 22.4482 32.7518 22.7482 32.6184L22.7382 33.1784ZM22.6782 35.3984V30.1484H23.3882V35.3984H22.6782ZM27.6545 35.4484C27.1079 35.4484 26.6279 35.3351 26.2145 35.1084C25.8012 34.8751 25.4779 34.5584 25.2445 34.1584C25.0112 33.7518 24.8945 33.2884 24.8945 32.7684C24.8945 32.2484 25.0045 31.7884 25.2245 31.3884C25.4512 30.9884 25.7579 30.6751 26.1445 30.4484C26.5379 30.2151 26.9779 30.0984 27.4645 30.0984C27.9579 30.0984 28.3945 30.2118 28.7745 30.4384C29.1612 30.6584 29.4645 30.9718 29.6845 31.3784C29.9045 31.7784 30.0145 32.2418 30.0145 32.7684C30.0145 32.8018 30.0112 32.8384 30.0045 32.8784C30.0045 32.9118 30.0045 32.9484 30.0045 32.9884H25.4345V32.4584H29.6245L29.3445 32.6684C29.3445 32.2884 29.2612 31.9518 29.0945 31.6584C28.9345 31.3584 28.7145 31.1251 28.4345 30.9584C28.1545 30.7918 27.8312 30.7084 27.4645 30.7084C27.1045 30.7084 26.7812 30.7918 26.4945 30.9584C26.2079 31.1251 25.9845 31.3584 25.8245 31.6584C25.6645 31.9584 25.5845 32.3018 25.5845 32.6884V32.7984C25.5845 33.1984 25.6712 33.5518 25.8445 33.8584C26.0245 34.1584 26.2712 34.3951 26.5845 34.5684C26.9045 34.7351 27.2679 34.8184 27.6745 34.8184C27.9945 34.8184 28.2912 34.7618 28.5645 34.6484C28.8445 34.5351 29.0845 34.3618 29.2845 34.1284L29.6845 34.5884C29.4512 34.8684 29.1579 35.0818 28.8045 35.2284C28.4579 35.3751 28.0745 35.4484 27.6545 35.4484ZM32.3518 35.3984V30.5784L32.5318 30.7684H30.3618V30.1484H35.0518V30.7684H32.8818L33.0618 30.5784V35.3984H32.3518ZM41.1984 35.3984V30.1484H41.9084V35.3984H41.1984ZM38.2884 31.9984C38.9484 32.0051 39.4517 32.1518 39.7984 32.4384C40.145 32.7251 40.3184 33.1384 40.3184 33.6784C40.3184 34.2384 40.1317 34.6684 39.7584 34.9684C39.385 35.2684 38.8517 35.4151 38.1584 35.4084L36.0784 35.3984V30.1484H36.7884V31.9784L38.2884 31.9984ZM38.1084 34.8684C38.6017 34.8751 38.9717 34.7784 39.2184 34.5784C39.4717 34.3718 39.5984 34.0718 39.5984 33.6784C39.5984 33.2851 39.475 32.9984 39.2284 32.8184C38.9817 32.6318 38.6084 32.5351 38.1084 32.5284L36.7884 32.5084V34.8484L38.1084 34.8684Z" fill="#001AFF"/>
<defs>
<clipPath id="clip0_174_273">
<rect width="18" height="18" fill="white" transform="translate(13 3.39844)"/>
</clipPath>
</defs>
</svg>
