<svg width="43" height="37" viewBox="0 0 43 37" fill="none" xmlns="http://www.w3.org/2000/svg">
<g clip-path="url(#clip0_174_97)">
<path d="M29.875 3H14.125C13.8203 3 13.5566 3.11133 13.334 3.33398C13.1113 3.55664 13 3.82031 13 4.125V19.875C13 20.1797 13.1113 20.4434 13.334 20.666C13.5566 20.8887 13.8203 21 14.125 21H29.875C30.1797 21 30.4434 20.8887 30.666 20.666C30.8887 20.4434 31 20.1797 31 19.875V4.125C31 3.92578 30.9502 3.73828 30.8506 3.5625C30.751 3.38672 30.6133 3.24902 30.4375 3.14941C30.2617 3.0498 30.0742 3 29.875 3ZM29.875 19.875H14.125V4.125H29.875V19.875ZM16.9375 9.1875H18.0625V10.3125C18.0625 10.4766 18.1182 10.6113 18.2295 10.7168C18.3408 10.8223 18.4727 10.875 18.625 10.875C18.7773 10.875 18.9092 10.8223 19.0205 10.7168C19.1318 10.6113 19.1875 10.4766 19.1875 10.3125V9.1875H20.3125C20.4648 9.1875 20.5967 9.13477 20.708 9.0293C20.8193 8.92383 20.875 8.79199 20.875 8.63379C20.875 8.47559 20.8193 8.34082 20.708 8.22949C20.5967 8.11816 20.4648 8.0625 20.3125 8.0625H19.1875V6.9375C19.1875 6.78516 19.1318 6.65332 19.0205 6.54199C18.9092 6.43066 18.7773 6.375 18.625 6.375C18.4727 6.375 18.3408 6.43066 18.2295 6.54199C18.1182 6.65332 18.0625 6.78516 18.0625 6.9375V8.0625H16.9375C16.7852 8.0625 16.6533 8.11816 16.542 8.22949C16.4307 8.34082 16.375 8.47559 16.375 8.63379C16.375 8.79199 16.4307 8.92383 16.542 9.0293C16.6533 9.13477 16.7852 9.1875 16.9375 9.1875ZM20.6201 13.3975C20.5088 13.2861 20.374 13.2305 20.2158 13.2305C20.0576 13.2305 19.9258 13.2832 19.8203 13.3887L18.625 14.584L17.4297 13.3887C17.3242 13.2832 17.1924 13.2305 17.0342 13.2305C16.876 13.2305 16.7412 13.2861 16.6299 13.3975C16.5186 13.5088 16.4629 13.6406 16.4629 13.793C16.4629 13.9453 16.5215 14.0742 16.6387 14.1797L17.834 15.375L16.6387 16.5703C16.5684 16.6406 16.5186 16.7256 16.4893 16.8252C16.46 16.9248 16.46 17.0215 16.4893 17.1152C16.5186 17.209 16.5684 17.291 16.6387 17.3613C16.6855 17.4199 16.7441 17.4639 16.8145 17.4932C16.8848 17.5225 16.958 17.5371 17.0342 17.5371C17.1104 17.5371 17.1836 17.5225 17.2539 17.4932C17.3242 17.4639 17.3828 17.4199 17.4297 17.3613L18.625 16.1836L19.8203 17.3613C19.8672 17.4199 19.9258 17.4639 19.9961 17.4932C20.0664 17.5225 20.1396 17.5371 20.2158 17.5371C20.292 17.5371 20.3652 17.5225 20.4355 17.4932C20.5059 17.4639 20.5645 17.4199 20.6113 17.3613C20.8809 17.1035 20.8809 16.8398 20.6113 16.5703L19.416 15.375L20.6113 14.1797C20.7285 14.0742 20.7871 13.9453 20.7871 13.793C20.7871 13.6406 20.7314 13.5088 20.6201 13.3975ZM23.6875 9.1875H27.0625C27.2148 9.1875 27.3467 9.13477 27.458 9.0293C27.5693 8.92383 27.625 8.79199 27.625 8.63379C27.625 8.47559 27.5693 8.34082 27.458 8.22949C27.3467 8.11816 27.2148 8.0625 27.0625 8.0625H23.6875C23.5352 8.0625 23.4033 8.11816 23.292 8.22949C23.1807 8.34082 23.125 8.47559 23.125 8.63379C23.125 8.79199 23.1807 8.92383 23.292 9.0293C23.4033 9.13477 23.5352 9.1875 23.6875 9.1875ZM23.6875 14.8125H27.0625C27.2148 14.8125 27.3467 14.7598 27.458 14.6543C27.5693 14.5488 27.625 14.417 27.625 14.2588C27.625 14.1006 27.5693 13.9658 27.458 13.8545C27.3467 13.7432 27.2148 13.6875 27.0625 13.6875H23.6875C23.5352 13.6875 23.4033 13.7432 23.292 13.8545C23.1807 13.9658 23.125 14.1006 23.125 14.2588C23.125 14.417 23.1807 14.5488 23.292 14.6543C23.4033 14.7598 23.5352 14.8125 23.6875 14.8125ZM23.6875 17.0625H27.0625C27.2148 17.0625 27.3467 17.0098 27.458 16.9043C27.5693 16.7988 27.625 16.667 27.625 16.5088C27.625 16.3506 27.5693 16.2158 27.458 16.1045C27.3467 15.9932 27.2148 15.9375 27.0625 15.9375H23.6875C23.5352 15.9375 23.4033 15.9932 23.292 16.1045C23.1807 16.2158 23.125 16.3506 23.125 16.5088C23.125 16.667 23.1807 16.7988 23.292 16.9043C23.4033 17.0098 23.5352 17.0625 23.6875 17.0625Z" fill="#666666"/>
</g>
<path d="M1.18 35V28H3.8C4.39333 28 4.90333 28.0967 5.33 28.29C5.75667 28.4767 6.08333 28.75 6.31 29.11C6.54333 29.4633 6.66 29.8933 6.66 30.4C6.66 30.8933 6.54333 31.32 6.31 31.68C6.08333 32.0333 5.75667 32.3067 5.33 32.5C4.90333 32.6933 4.39333 32.79 3.8 32.79H1.59L1.92 32.44V35H1.18ZM1.92 32.5L1.59 32.14H3.78C4.48 32.14 5.01 31.99 5.37 31.69C5.73667 31.3833 5.92 30.9533 5.92 30.4C5.92 29.84 5.73667 29.4067 5.37 29.1C5.01 28.7933 4.48 28.64 3.78 28.64H1.59L1.92 28.29V32.5ZM11.2134 35V33.84L11.1834 33.65V31.71C11.1834 31.2633 11.0567 30.92 10.8034 30.68C10.5567 30.44 10.1867 30.32 9.69336 30.32C9.35336 30.32 9.03003 30.3767 8.72336 30.49C8.41669 30.6033 8.15669 30.7533 7.94336 30.94L7.62336 30.41C7.89003 30.1833 8.21003 30.01 8.58336 29.89C8.95669 29.7633 9.35003 29.7 9.76336 29.7C10.4434 29.7 10.9667 29.87 11.3334 30.21C11.7067 30.5433 11.8934 31.0533 11.8934 31.74V35H11.2134ZM9.40336 35.05C9.01003 35.05 8.66669 34.9867 8.37336 34.86C8.08669 34.7267 7.86669 34.5467 7.71336 34.32C7.56003 34.0867 7.48336 33.82 7.48336 33.52C7.48336 33.2467 7.54669 33 7.67336 32.78C7.80669 32.5533 8.02003 32.3733 8.31336 32.24C8.61336 32.1 9.01336 32.03 9.51336 32.03H11.3234V32.56H9.53336C9.02669 32.56 8.67336 32.65 8.47336 32.83C8.28003 33.01 8.18336 33.2333 8.18336 33.5C8.18336 33.8 8.30003 34.04 8.53336 34.22C8.76669 34.4 9.09336 34.49 9.51336 34.49C9.91336 34.49 10.2567 34.4 10.5434 34.22C10.8367 34.0333 11.05 33.7667 11.1834 33.42L11.3434 33.91C11.21 34.2567 10.9767 34.5333 10.6434 34.74C10.3167 34.9467 9.90336 35.05 9.40336 35.05ZM15.9834 35.05C15.4634 35.05 14.9968 34.9367 14.5834 34.71C14.1768 34.4767 13.8568 34.16 13.6234 33.76C13.3901 33.3533 13.2734 32.89 13.2734 32.37C13.2734 31.8433 13.3901 31.38 13.6234 30.98C13.8568 30.58 14.1768 30.2667 14.5834 30.04C14.9968 29.8133 15.4634 29.7 15.9834 29.7C16.4301 29.7 16.8334 29.7867 17.1934 29.96C17.5534 30.1333 17.8368 30.3933 18.0434 30.74L17.5134 31.1C17.3334 30.8333 17.1101 30.6367 16.8434 30.51C16.5768 30.3833 16.2868 30.32 15.9734 30.32C15.6001 30.32 15.2634 30.4067 14.9634 30.58C14.6634 30.7467 14.4268 30.9833 14.2534 31.29C14.0801 31.5967 13.9934 31.9567 13.9934 32.37C13.9934 32.7833 14.0801 33.1433 14.2534 33.45C14.4268 33.7567 14.6634 33.9967 14.9634 34.17C15.2634 34.3367 15.6001 34.42 15.9734 34.42C16.2868 34.42 16.5768 34.3567 16.8434 34.23C17.1101 34.1033 17.3334 33.91 17.5134 33.65L18.0434 34.01C17.8368 34.35 17.5534 34.61 17.1934 34.79C16.8334 34.9633 16.4301 35.05 15.9834 35.05ZM22.7382 32.78C22.4315 32.9133 22.1215 33.02 21.8082 33.1C21.5015 33.1733 21.1949 33.21 20.8882 33.21C20.2682 33.21 19.7782 33.07 19.4182 32.79C19.0582 32.5033 18.8782 32.0633 18.8782 31.47V29.75H19.5782V31.43C19.5782 31.83 19.7082 32.13 19.9682 32.33C20.2282 32.53 20.5782 32.63 21.0182 32.63C21.2849 32.63 21.5649 32.5967 21.8582 32.53C22.1515 32.4567 22.4482 32.3533 22.7482 32.22L22.7382 32.78ZM22.6782 35V29.75H23.3882V35H22.6782ZM27.6545 35.05C27.1079 35.05 26.6279 34.9367 26.2145 34.71C25.8012 34.4767 25.4779 34.16 25.2445 33.76C25.0112 33.3533 24.8945 32.89 24.8945 32.37C24.8945 31.85 25.0045 31.39 25.2245 30.99C25.4512 30.59 25.7579 30.2767 26.1445 30.05C26.5379 29.8167 26.9779 29.7 27.4645 29.7C27.9579 29.7 28.3945 29.8133 28.7745 30.04C29.1612 30.26 29.4645 30.5733 29.6845 30.98C29.9045 31.38 30.0145 31.8433 30.0145 32.37C30.0145 32.4033 30.0112 32.44 30.0045 32.48C30.0045 32.5133 30.0045 32.55 30.0045 32.59H25.4345V32.06H29.6245L29.3445 32.27C29.3445 31.89 29.2612 31.5533 29.0945 31.26C28.9345 30.96 28.7145 30.7267 28.4345 30.56C28.1545 30.3933 27.8312 30.31 27.4645 30.31C27.1045 30.31 26.7812 30.3933 26.4945 30.56C26.2079 30.7267 25.9845 30.96 25.8245 31.26C25.6645 31.56 25.5845 31.9033 25.5845 32.29V32.4C25.5845 32.8 25.6712 33.1533 25.8445 33.46C26.0245 33.76 26.2712 33.9967 26.5845 34.17C26.9045 34.3367 27.2679 34.42 27.6745 34.42C27.9945 34.42 28.2912 34.3633 28.5645 34.25C28.8445 34.1367 29.0845 33.9633 29.2845 33.73L29.6845 34.19C29.4512 34.47 29.1579 34.6833 28.8045 34.83C28.4579 34.9767 28.0745 35.05 27.6545 35.05ZM32.3518 35V30.18L32.5318 30.37H30.3618V29.75H35.0518V30.37H32.8818L33.0618 30.18V35H32.3518ZM41.1984 35V29.75H41.9084V35H41.1984ZM38.2884 31.6C38.9484 31.6067 39.4517 31.7533 39.7984 32.04C40.145 32.3267 40.3184 32.74 40.3184 33.28C40.3184 33.84 40.1317 34.27 39.7584 34.57C39.385 34.87 38.8517 35.0167 38.1584 35.01L36.0784 35V29.75H36.7884V31.58L38.2884 31.6ZM38.1084 34.47C38.6017 34.4767 38.9717 34.38 39.2184 34.18C39.4717 33.9733 39.5984 33.6733 39.5984 33.28C39.5984 32.8867 39.475 32.6 39.2284 32.42C38.9817 32.2333 38.6084 32.1367 38.1084 32.13L36.7884 32.11V34.45L38.1084 34.47Z" fill="black"/>
<defs>
<clipPath id="clip0_174_97">
<rect width="18" height="18" fill="white" transform="translate(13 3)"/>
</clipPath>
</defs>
</svg>
