<svg width="46" height="35" viewBox="0 0 46 35" fill="none" xmlns="http://www.w3.org/2000/svg">
<path fill-rule="evenodd" clip-rule="evenodd" d="M17.7917 2.89844H28.21C28.8168 2.90025 29.3982 3.1421 29.8273 3.57117C30.2563 4.00024 30.4982 4.58165 30.5 5.18844L30.5 5.1901L30.5 9.70399C30.5 10.0108 30.2513 10.2595 29.9444 10.2595H16.0556C15.7487 10.2595 15.5 10.0108 15.5 9.70399V5.18844C15.5018 4.58166 15.7437 4.00024 16.1727 3.57117C16.6018 3.1421 17.1832 2.90025 17.79 2.89844L17.7917 2.89844ZM17.7926 4.00955C17.4796 4.01068 17.1797 4.13551 16.9584 4.35684C16.7371 4.57817 16.6122 4.87803 16.6111 5.19101V9.14844H29.3889V5.19111C29.3878 4.87809 29.2629 4.5782 29.0416 4.35684C28.8203 4.13551 28.5204 4.01068 28.2074 4.00955H17.7926Z" fill="#666666"/>
<path fill-rule="evenodd" clip-rule="evenodd" d="M16.7483 9.14844L16.75 9.14844L29.2516 9.14844C30.1344 9.15105 30.9803 9.50291 31.6046 10.1272C32.2288 10.7514 32.5807 11.5973 32.5833 12.4801L32.5833 12.4818L32.5833 17.3429C32.5833 17.6497 32.3346 17.8984 32.0277 17.8984C31.7209 17.8984 31.4722 17.6497 31.4722 17.3429V12.4827C31.4703 11.8937 31.2354 11.3293 30.8189 10.9128C30.4024 10.4963 29.8381 10.2615 29.2491 10.2596H16.7508C16.1618 10.2615 15.5975 10.4963 15.181 10.9128C14.7645 11.3293 14.5297 11.8937 14.5277 12.4826V17.3429C14.5277 17.6497 14.279 17.8984 13.9722 17.8984C13.6654 17.8984 13.4166 17.6497 13.4166 17.3429V12.4801C13.4192 11.5973 13.7711 10.7514 14.3953 10.1272C15.0196 9.50291 15.8655 9.15105 16.7483 9.14844Z" fill="#666666"/>
<path fill-rule="evenodd" clip-rule="evenodd" d="M15.0138 15.3984H30.9877C31.4105 15.3997 31.8156 15.5682 32.1146 15.8671C32.4136 16.1661 32.5821 16.5712 32.5833 16.994L32.5833 16.9957L32.5833 17.3429C32.5833 17.6497 32.3346 17.8984 32.0277 17.8984C31.7209 17.8984 31.4722 17.6497 31.4722 17.3429V16.9967C31.4716 16.8677 31.4202 16.7441 31.3289 16.6528C31.2377 16.5616 31.1141 16.5101 30.9851 16.5095H15.0148C14.8858 16.5101 14.7622 16.5616 14.671 16.6528C14.5798 16.744 14.5283 16.8676 14.5277 16.9966V17.3429C14.5277 17.6497 14.279 17.8984 13.9722 17.8984C13.6654 17.8984 13.4166 17.6497 13.4166 17.3429V16.994C13.4179 16.5712 13.5864 16.1661 13.8853 15.8671C14.1843 15.5682 14.5894 15.3997 15.0122 15.3984L15.0138 15.3984Z" fill="#666666"/>
<path fill-rule="evenodd" clip-rule="evenodd" d="M18.1389 7.06512H21.6127C22.1275 7.06657 22.6209 7.27173 22.9849 7.63578C23.349 7.99983 23.5541 8.49317 23.5556 9.00801L23.5556 9.00957L23.5556 9.70401C23.5556 10.0108 23.3068 10.2596 23 10.2596C22.6932 10.2596 22.4445 10.0108 22.4445 9.70401V9.01046C22.4437 8.78946 22.3555 8.57773 22.1992 8.42145C22.043 8.26517 21.8312 8.17703 21.6102 8.17624H18.1398C17.9188 8.17703 17.7071 8.26517 17.5508 8.42145C17.3945 8.57773 17.3064 8.78945 17.3056 9.01044V9.70401C17.3056 10.0108 17.0568 10.2596 16.75 10.2596C16.4432 10.2596 16.1945 10.0108 16.1945 9.70401V9.00801C16.1959 8.49317 16.4011 7.99983 16.7651 7.63578C17.1292 7.27173 17.6225 7.06657 18.1373 7.06513L18.1389 7.06512Z" fill="#666666"/>
<path fill-rule="evenodd" clip-rule="evenodd" d="M24.3889 7.06512H27.8627C28.3775 7.06657 28.8709 7.27173 29.2349 7.63578C29.599 7.99983 29.8041 8.49317 29.8056 9.00801L29.8056 9.00957L29.8056 9.70401C29.8056 10.0108 29.5568 10.2596 29.25 10.2596C28.9432 10.2596 28.6945 10.0108 28.6945 9.70401V9.01046C28.6937 8.78946 28.6055 8.57773 28.4492 8.42145C28.293 8.26517 28.0812 8.17703 27.8602 8.17624H24.3898C24.1688 8.17703 23.9571 8.26517 23.8008 8.42145C23.6445 8.57773 23.5564 8.78945 23.5556 9.01044V9.70401C23.5556 10.0108 23.3068 10.2596 23 10.2596C22.6932 10.2596 22.4445 10.0108 22.4445 9.70401V9.00801C22.4459 8.49317 22.6511 7.99983 23.0151 7.63578C23.3792 7.27173 23.8725 7.06657 24.3873 7.06513L24.3889 7.06512Z" fill="#666666"/>
<path d="M1.18 32.3984V25.3984H1.91V31.1984L6.39 25.3984H7.06V32.3984H6.33V26.6084L1.85 32.3984H1.18ZM10.6622 32.4584C11.0955 32.4584 11.4855 32.3918 11.8322 32.2584C12.1855 32.1251 12.4655 31.9418 12.6722 31.7084C12.8789 31.4684 12.9822 31.1918 12.9822 30.8784C12.9822 30.4784 12.8122 30.1618 12.4722 29.9284C12.1389 29.6951 11.6722 29.5784 11.0722 29.5784L11.0422 29.7684C11.3822 29.7684 11.6855 29.7151 11.9522 29.6084C12.2189 29.5018 12.4322 29.3518 12.5922 29.1584C12.7522 28.9651 12.8322 28.7384 12.8322 28.4784C12.8322 28.1851 12.7322 27.9351 12.5322 27.7284C12.3322 27.5151 12.0622 27.3518 11.7222 27.2384C11.3889 27.1251 11.0122 27.0751 10.5922 27.0884C10.2855 27.0884 9.97885 27.1318 9.67219 27.2184C9.37219 27.2984 9.06885 27.4184 8.76219 27.5784L8.96219 28.1284C9.23552 27.9884 9.51219 27.8851 9.79219 27.8184C10.0722 27.7451 10.3422 27.7051 10.6022 27.6984C10.8889 27.6984 11.1455 27.7318 11.3722 27.7984C11.5989 27.8651 11.7755 27.9651 11.9022 28.0984C12.0355 28.2318 12.1022 28.3918 12.1022 28.5784C12.1022 28.7518 12.0455 28.9018 11.9322 29.0284C11.8255 29.1551 11.6722 29.2518 11.4722 29.3184C11.2722 29.3851 11.0422 29.4184 10.7822 29.4184H9.93219V29.9384H10.8322C11.2722 29.9384 11.6189 30.0184 11.8722 30.1784C12.1255 30.3318 12.2522 30.5484 12.2522 30.8284C12.2522 31.0218 12.1855 31.1951 12.0522 31.3484C11.9189 31.5018 11.7322 31.6218 11.4922 31.7084C11.2522 31.7951 10.9689 31.8418 10.6422 31.8484C10.3155 31.8484 9.98552 31.8018 9.65219 31.7084C9.31885 31.6084 9.02552 31.4651 8.77219 31.2784L8.54219 31.8084C8.82885 32.0284 9.15885 32.1918 9.53219 32.2984C9.90552 32.4051 10.2822 32.4584 10.6622 32.4584ZM18.194 32.0584V27.7684H15.664L15.604 28.9384C15.5907 29.2918 15.5673 29.6384 15.534 29.9784C15.5073 30.3184 15.4573 30.6318 15.384 30.9184C15.3173 31.1984 15.2207 31.4284 15.094 31.6084C14.9673 31.7818 14.804 31.8818 14.604 31.9084L13.894 31.7784C14.1007 31.7851 14.2707 31.7118 14.404 31.5584C14.5373 31.3984 14.6407 31.1818 14.714 30.9084C14.7873 30.6351 14.8407 30.3251 14.874 29.9784C14.9073 29.6251 14.934 29.2651 14.954 28.8984L15.024 27.1484H18.904V32.0584H18.194ZM13.674 33.6684V31.7784H19.724V33.6684H19.054V32.3984H14.344V33.6684H13.674ZM23.3577 32.4484C22.811 32.4484 22.331 32.3351 21.9177 32.1084C21.5043 31.8751 21.181 31.5584 20.9477 31.1584C20.7143 30.7518 20.5977 30.2884 20.5977 29.7684C20.5977 29.2484 20.7077 28.7884 20.9277 28.3884C21.1543 27.9884 21.461 27.6751 21.8477 27.4484C22.241 27.2151 22.681 27.0984 23.1677 27.0984C23.661 27.0984 24.0977 27.2118 24.4777 27.4384C24.8643 27.6584 25.1677 27.9718 25.3877 28.3784C25.6077 28.7784 25.7177 29.2418 25.7177 29.7684C25.7177 29.8018 25.7143 29.8384 25.7077 29.8784C25.7077 29.9118 25.7077 29.9484 25.7077 29.9884H21.1377V29.4584H25.3277L25.0477 29.6684C25.0477 29.2884 24.9643 28.9518 24.7977 28.6584C24.6377 28.3584 24.4177 28.1251 24.1377 27.9584C23.8577 27.7918 23.5343 27.7084 23.1677 27.7084C22.8077 27.7084 22.4843 27.7918 22.1977 27.9584C21.911 28.1251 21.6877 28.3584 21.5277 28.6584C21.3677 28.9584 21.2877 29.3018 21.2877 29.6884V29.7984C21.2877 30.1984 21.3743 30.5518 21.5477 30.8584C21.7277 31.1584 21.9743 31.3951 22.2877 31.5684C22.6077 31.7351 22.971 31.8184 23.3777 31.8184C23.6977 31.8184 23.9943 31.7618 24.2677 31.6484C24.5477 31.5351 24.7877 31.3618 24.9877 31.1284L25.3877 31.5884C25.1543 31.8684 24.861 32.0818 24.5077 32.2284C24.161 32.3751 23.7777 32.4484 23.3577 32.4484ZM26.2219 32.3884L26.2719 31.7784C26.3185 31.7851 26.3619 31.7951 26.4019 31.8084C26.4485 31.8151 26.4885 31.8184 26.5219 31.8184C26.7352 31.8184 26.9052 31.7384 27.0319 31.5784C27.1652 31.4184 27.2652 31.2051 27.3319 30.9384C27.3985 30.6718 27.4452 30.3718 27.4719 30.0384C27.4985 29.6984 27.5219 29.3584 27.5419 29.0184L27.6319 27.1484H31.4819V32.3984H30.7719V27.5584L30.9519 27.7684H28.0919L28.2619 27.5484L28.1819 29.0684C28.1619 29.5218 28.1252 29.9551 28.0719 30.3684C28.0252 30.7818 27.9485 31.1451 27.8419 31.4584C27.7419 31.7718 27.6019 32.0184 27.4219 32.1984C27.2419 32.3718 27.0119 32.4584 26.7319 32.4584C26.6519 32.4584 26.5685 32.4518 26.4819 32.4384C26.4019 32.4251 26.3152 32.4084 26.2219 32.3884ZM33.5002 32.3984V27.1484H34.2102V31.3184L37.7202 27.1484H38.3502V32.3984H37.6402V28.2184L34.1402 32.3984H33.5002ZM43.775 32.3984V30.5084L43.905 30.6584H42.125C41.4517 30.6584 40.925 30.5118 40.545 30.2184C40.165 29.9251 39.975 29.4984 39.975 28.9384C39.975 28.3384 40.1783 27.8918 40.585 27.5984C40.9917 27.2984 41.535 27.1484 42.215 27.1484H44.425V32.3984H43.775ZM39.935 32.3984L41.375 30.3784H42.115L40.705 32.3984H39.935ZM43.775 30.2984V27.5584L43.905 27.7684H42.235C41.7483 27.7684 41.3683 27.8618 41.095 28.0484C40.8283 28.2351 40.695 28.5384 40.695 28.9584C40.695 29.7384 41.1917 30.1284 42.185 30.1284H43.905L43.775 30.2984Z" fill="black"/>
</svg>
