<svg width="46" height="34" viewBox="0 0 46 34" fill="none" xmlns="http://www.w3.org/2000/svg">
<path fill-rule="evenodd" clip-rule="evenodd" d="M17.7917 2.5H28.21C28.8168 2.50181 29.3982 2.74366 29.8273 3.17273C30.2563 3.6018 30.4982 4.18322 30.5 4.79001L30.5 4.79167L30.5 9.30556C30.5 9.61238 30.2513 9.86111 29.9444 9.86111H16.0556C15.7487 9.86111 15.5 9.61238 15.5 9.30556V4.79001C15.5018 4.18322 15.7437 3.6018 16.1727 3.17273C16.6018 2.74366 17.1832 2.50181 17.79 2.5L17.7917 2.5ZM17.7926 3.61111C17.4796 3.61224 17.1797 3.73708 16.9584 3.95841C16.7371 4.17973 16.6122 4.47959 16.6111 4.79257V8.75H29.3889V4.79268C29.3878 4.47966 29.2629 4.17976 29.0416 3.95841C28.8203 3.73708 28.5204 3.61224 28.2074 3.61111H17.7926Z" fill="#001AFF"/>
<path fill-rule="evenodd" clip-rule="evenodd" d="M16.7484 8.75L16.75 8.75L29.2517 8.75C30.1345 8.75261 30.9804 9.10447 31.6046 9.72872C32.2289 10.353 32.5807 11.1989 32.5834 12.0817L32.5834 12.0833L32.5834 16.9444C32.5834 17.2513 32.3346 17.5 32.0278 17.5C31.721 17.5 31.4722 17.2513 31.4722 16.9444V12.0843C31.4703 11.4953 31.2355 10.9309 30.819 10.5144C30.4025 10.0979 29.8381 9.86306 29.2492 9.86111H16.7509C16.1619 9.86306 15.5976 10.0979 15.1811 10.5144C14.7646 10.9309 14.5297 11.4952 14.5278 12.0842V16.9444C14.5278 17.2513 14.2791 17.5 13.9722 17.5C13.6654 17.5 13.4167 17.2513 13.4167 16.9444V12.0817C13.4193 11.1989 13.7712 10.353 14.3954 9.72872C15.0196 9.10447 15.8656 8.75261 16.7484 8.75Z" fill="#001AFF"/>
<path fill-rule="evenodd" clip-rule="evenodd" d="M15.0139 15H30.9877C31.4105 15.0012 31.8157 15.1697 32.1147 15.4687C32.4136 15.7677 32.5821 16.1728 32.5834 16.5956L32.5834 16.5972L32.5834 16.9444C32.5834 17.2513 32.3346 17.5 32.0278 17.5C31.721 17.5 31.4722 17.2513 31.4722 16.9444V16.5982C31.4717 16.4692 31.4202 16.3456 31.329 16.2544C31.2377 16.1631 31.1142 16.1117 30.9852 16.1111H15.0149C14.8859 16.1117 14.7623 16.1631 14.6711 16.2544C14.5798 16.3456 14.5283 16.4692 14.5278 16.5982V16.9444C14.5278 17.2513 14.2791 17.5 13.9722 17.5C13.6654 17.5 13.4167 17.2513 13.4167 16.9444V16.5956C13.4179 16.1728 13.5864 15.7677 13.8854 15.4687C14.1844 15.1697 14.5895 15.0012 15.0123 15L15.0139 15Z" fill="#001AFF"/>
<path fill-rule="evenodd" clip-rule="evenodd" d="M18.1389 6.66667H21.6127C22.1275 6.66812 22.6209 6.87328 22.9849 7.23732C23.349 7.60137 23.5541 8.09472 23.5556 8.60956L23.5556 8.61112L23.5556 9.30556C23.5556 9.61238 23.3068 9.86112 23 9.86112C22.6932 9.86112 22.4445 9.61238 22.4445 9.30556V8.61201C22.4437 8.39101 22.3555 8.17928 22.1992 8.023C22.043 7.86672 21.8312 7.77858 21.6102 7.77778H18.1398C17.9188 7.77858 17.7071 7.86672 17.5508 8.023C17.3945 8.17928 17.3064 8.391 17.3056 8.61199V9.30556C17.3056 9.61238 17.0568 9.86112 16.75 9.86112C16.4432 9.86112 16.1945 9.61238 16.1945 9.30556V8.60956C16.1959 8.09472 16.4011 7.60137 16.7651 7.23732C17.1292 6.87328 17.6225 6.66812 18.1373 6.66667L18.1389 6.66667Z" fill="#001AFF"/>
<path fill-rule="evenodd" clip-rule="evenodd" d="M24.3889 6.66667H27.8627C28.3775 6.66812 28.8709 6.87328 29.2349 7.23732C29.599 7.60137 29.8041 8.09472 29.8056 8.60956L29.8056 8.61112L29.8056 9.30556C29.8056 9.61238 29.5568 9.86112 29.25 9.86112C28.9432 9.86112 28.6945 9.61238 28.6945 9.30556V8.61201C28.6937 8.39101 28.6055 8.17928 28.4492 8.023C28.293 7.86672 28.0812 7.77858 27.8602 7.77778H24.3898C24.1688 7.77858 23.9571 7.86672 23.8008 8.023C23.6445 8.17928 23.5564 8.391 23.5556 8.61199V9.30556C23.5556 9.61238 23.3068 9.86112 23 9.86112C22.6932 9.86112 22.4445 9.61238 22.4445 9.30556V8.60956C22.4459 8.09472 22.6511 7.60137 23.0151 7.23732C23.3792 6.87328 23.8725 6.66812 24.3873 6.66667L24.3889 6.66667Z" fill="#001AFF"/>
<path d="M1.18 32V25H1.91V30.8L6.39 25H7.06V32H6.33V26.21L1.85 32H1.18ZM10.6622 32.06C11.0955 32.06 11.4855 31.9933 11.8322 31.86C12.1855 31.7267 12.4655 31.5433 12.6722 31.31C12.8789 31.07 12.9822 30.7933 12.9822 30.48C12.9822 30.08 12.8122 29.7633 12.4722 29.53C12.1389 29.2967 11.6722 29.18 11.0722 29.18L11.0422 29.37C11.3822 29.37 11.6855 29.3167 11.9522 29.21C12.2189 29.1033 12.4322 28.9533 12.5922 28.76C12.7522 28.5667 12.8322 28.34 12.8322 28.08C12.8322 27.7867 12.7322 27.5367 12.5322 27.33C12.3322 27.1167 12.0622 26.9533 11.7222 26.84C11.3889 26.7267 11.0122 26.6767 10.5922 26.69C10.2855 26.69 9.97885 26.7333 9.67219 26.82C9.37219 26.9 9.06885 27.02 8.76219 27.18L8.96219 27.73C9.23552 27.59 9.51219 27.4867 9.79219 27.42C10.0722 27.3467 10.3422 27.3067 10.6022 27.3C10.8889 27.3 11.1455 27.3333 11.3722 27.4C11.5989 27.4667 11.7755 27.5667 11.9022 27.7C12.0355 27.8333 12.1022 27.9933 12.1022 28.18C12.1022 28.3533 12.0455 28.5033 11.9322 28.63C11.8255 28.7567 11.6722 28.8533 11.4722 28.92C11.2722 28.9867 11.0422 29.02 10.7822 29.02H9.93219V29.54H10.8322C11.2722 29.54 11.6189 29.62 11.8722 29.78C12.1255 29.9333 12.2522 30.15 12.2522 30.43C12.2522 30.6233 12.1855 30.7967 12.0522 30.95C11.9189 31.1033 11.7322 31.2233 11.4922 31.31C11.2522 31.3967 10.9689 31.4433 10.6422 31.45C10.3155 31.45 9.98552 31.4033 9.65219 31.31C9.31885 31.21 9.02552 31.0667 8.77219 30.88L8.54219 31.41C8.82885 31.63 9.15885 31.7933 9.53219 31.9C9.90552 32.0067 10.2822 32.06 10.6622 32.06ZM18.194 31.66V27.37H15.664L15.604 28.54C15.5907 28.8933 15.5673 29.24 15.534 29.58C15.5073 29.92 15.4573 30.2333 15.384 30.52C15.3173 30.8 15.2207 31.03 15.094 31.21C14.9673 31.3833 14.804 31.4833 14.604 31.51L13.894 31.38C14.1007 31.3867 14.2707 31.3133 14.404 31.16C14.5373 31 14.6407 30.7833 14.714 30.51C14.7873 30.2367 14.8407 29.9267 14.874 29.58C14.9073 29.2267 14.934 28.8667 14.954 28.5L15.024 26.75H18.904V31.66H18.194ZM13.674 33.27V31.38H19.724V33.27H19.054V32H14.344V33.27H13.674ZM23.3577 32.05C22.811 32.05 22.331 31.9367 21.9177 31.71C21.5043 31.4767 21.181 31.16 20.9477 30.76C20.7143 30.3533 20.5977 29.89 20.5977 29.37C20.5977 28.85 20.7077 28.39 20.9277 27.99C21.1543 27.59 21.461 27.2767 21.8477 27.05C22.241 26.8167 22.681 26.7 23.1677 26.7C23.661 26.7 24.0977 26.8133 24.4777 27.04C24.8643 27.26 25.1677 27.5733 25.3877 27.98C25.6077 28.38 25.7177 28.8433 25.7177 29.37C25.7177 29.4033 25.7143 29.44 25.7077 29.48C25.7077 29.5133 25.7077 29.55 25.7077 29.59H21.1377V29.06H25.3277L25.0477 29.27C25.0477 28.89 24.9643 28.5533 24.7977 28.26C24.6377 27.96 24.4177 27.7267 24.1377 27.56C23.8577 27.3933 23.5343 27.31 23.1677 27.31C22.8077 27.31 22.4843 27.3933 22.1977 27.56C21.911 27.7267 21.6877 27.96 21.5277 28.26C21.3677 28.56 21.2877 28.9033 21.2877 29.29V29.4C21.2877 29.8 21.3743 30.1533 21.5477 30.46C21.7277 30.76 21.9743 30.9967 22.2877 31.17C22.6077 31.3367 22.971 31.42 23.3777 31.42C23.6977 31.42 23.9943 31.3633 24.2677 31.25C24.5477 31.1367 24.7877 30.9633 24.9877 30.73L25.3877 31.19C25.1543 31.47 24.861 31.6833 24.5077 31.83C24.161 31.9767 23.7777 32.05 23.3577 32.05ZM26.2219 31.99L26.2719 31.38C26.3185 31.3867 26.3619 31.3967 26.4019 31.41C26.4485 31.4167 26.4885 31.42 26.5219 31.42C26.7352 31.42 26.9052 31.34 27.0319 31.18C27.1652 31.02 27.2652 30.8067 27.3319 30.54C27.3985 30.2733 27.4452 29.9733 27.4719 29.64C27.4985 29.3 27.5219 28.96 27.5419 28.62L27.6319 26.75H31.4819V32H30.7719V27.16L30.9519 27.37H28.0919L28.2619 27.15L28.1819 28.67C28.1619 29.1233 28.1252 29.5567 28.0719 29.97C28.0252 30.3833 27.9485 30.7467 27.8419 31.06C27.7419 31.3733 27.6019 31.62 27.4219 31.8C27.2419 31.9733 27.0119 32.06 26.7319 32.06C26.6519 32.06 26.5685 32.0533 26.4819 32.04C26.4019 32.0267 26.3152 32.01 26.2219 31.99ZM33.5002 32V26.75H34.2102V30.92L37.7202 26.75H38.3502V32H37.6402V27.82L34.1402 32H33.5002ZM43.775 32V30.11L43.905 30.26H42.125C41.4517 30.26 40.925 30.1133 40.545 29.82C40.165 29.5267 39.975 29.1 39.975 28.54C39.975 27.94 40.1783 27.4933 40.585 27.2C40.9917 26.9 41.535 26.75 42.215 26.75H44.425V32H43.775ZM39.935 32L41.375 29.98H42.115L40.705 32H39.935ZM43.775 29.9V27.16L43.905 27.37H42.235C41.7483 27.37 41.3683 27.4633 41.095 27.65C40.8283 27.8367 40.695 28.14 40.695 28.56C40.695 29.34 41.1917 29.73 42.185 29.73H43.905L43.775 29.9Z" fill="#001AFF"/>
</svg>
