<svg width="34" height="34" viewBox="0 0 34 34" fill="none" xmlns="http://www.w3.org/2000/svg">
<path d="M23.349 3.651C23.4167 3.71871 23.4705 3.7991 23.5071 3.88758C23.5438 3.97606 23.5626 4.07089 23.5626 4.16667C23.5626 4.26244 23.5438 4.35727 23.5071 4.44575C23.4705 4.53423 23.4167 4.61462 23.349 4.68233L11.6823 16.349C11.6146 16.4167 11.5342 16.4704 11.4457 16.5071C11.3573 16.5437 11.2624 16.5626 11.1667 16.5626C11.0709 16.5626 10.9761 16.5437 10.8876 16.5071C10.7991 16.4704 10.7187 16.4167 10.651 16.349C10.5833 16.2813 10.5296 16.2009 10.4929 16.1124C10.4563 16.0239 10.4374 15.9291 10.4374 15.8333C10.4374 15.7376 10.4563 15.6427 10.4929 15.5543C10.5296 15.4658 10.5833 15.3854 10.651 15.3177L22.3177 3.651C22.3854 3.58327 22.4658 3.52954 22.5542 3.49289C22.6427 3.45623 22.7376 3.43736 22.8333 3.43736C22.9291 3.43736 23.0239 3.45623 23.1124 3.49289C23.2009 3.52954 23.2813 3.58327 23.349 3.651ZM12.9167 7.66667C12.4525 7.66667 12.0074 7.48229 11.6792 7.1541C11.351 6.82591 11.1667 6.3808 11.1667 5.91667C11.1667 5.45254 11.351 5.00742 11.6792 4.67923C12.0074 4.35104 12.4525 4.16667 12.9167 4.16667C13.3808 4.16667 13.8259 4.35104 14.1541 4.67923C14.4823 5.00742 14.6667 5.45254 14.6667 5.91667C14.6667 6.3808 14.4823 6.82591 14.1541 7.1541C13.8259 7.48229 13.3808 7.66667 12.9167 7.66667ZM12.9167 8.83333C13.6902 8.83333 14.4321 8.52604 14.9791 7.97906C15.526 7.43208 15.8333 6.69021 15.8333 5.91667C15.8333 5.14312 15.526 4.40125 14.9791 3.85427C14.4321 3.30729 13.6902 3 12.9167 3C12.1431 3 11.4013 3.30729 10.8543 3.85427C10.3073 4.40125 10 5.14312 10 5.91667C10 6.69021 10.3073 7.43208 10.8543 7.97906C11.4013 8.52604 12.1431 8.83333 12.9167 8.83333ZM21.0833 15.8333C20.6192 15.8333 20.1741 15.649 19.8459 15.3208C19.5177 14.9926 19.3333 14.5475 19.3333 14.0833C19.3333 13.6192 19.5177 13.1741 19.8459 12.8459C20.1741 12.5177 20.6192 12.3333 21.0833 12.3333C21.5475 12.3333 21.9926 12.5177 22.3208 12.8459C22.649 13.1741 22.8333 13.6192 22.8333 14.0833C22.8333 14.5475 22.649 14.9926 22.3208 15.3208C21.9926 15.649 21.5475 15.8333 21.0833 15.8333ZM21.0833 17C21.8569 17 22.5987 16.6927 23.1457 16.1457C23.6927 15.5987 24 14.8569 24 14.0833C24 13.3098 23.6927 12.5679 23.1457 12.0209C22.5987 11.474 21.8569 11.1667 21.0833 11.1667C20.3098 11.1667 19.5679 11.474 19.0209 12.0209C18.474 12.5679 18.1667 13.3098 18.1667 14.0833C18.1667 14.8569 18.474 15.5987 19.0209 16.1457C19.5679 16.6927 20.3098 17 21.0833 17Z" fill="#666666"/>
<path d="M0.15 32L3.35 25H4.08L7.28 32H6.5L3.56 25.43H3.86L0.92 32H0.15ZM1.41 30.13L1.63 29.53H5.7L5.92 30.13H1.41ZM12.3014 32L10.1414 29.4L10.7314 29.05L13.1414 32H12.3014ZM8.45141 32V26.75H9.16141V32H8.45141ZM8.94141 29.66V29.05H10.6314V29.66H8.94141ZM10.7914 29.45L10.1314 29.35L12.2214 26.75H12.9914L10.7914 29.45ZM14.262 32V26.75H14.972V31.38H18.182V26.75H18.892V32H14.262ZM19.072 33.27V31.94L19.252 32H18.182V31.38H19.742V33.27H19.072ZM21.0979 32V26.75H21.8079V30.92L25.3179 26.75H25.9479V32H25.2379V27.82L21.7379 32H21.0979ZM27.9827 32V26.75H28.6927V30.92L32.2027 26.75H32.8327V32H32.1227V27.82L28.6227 32H27.9827Z" fill="black"/>
</svg>
